<svg width="76" height="76" viewBox="0 0 76 76" fill="none" xmlns="http://www.w3.org/2000/svg">
<circle cx="38" cy="38" r="38" fill="#E9ECE0" fill-opacity="0.33"/>
<path d="M21.6195 38.1839H53.3805C53.7225 38.1839 54 37.8785 54 37.5021C54 37.1258 53.7225 36.8203 53.3805 36.8203H21.6195C21.2775 36.8203 21 37.1258 21 37.5021C21 37.8785 21.2775 38.1839 21.6195 38.1839Z" fill="white"/>
<path d="M46.154 45C46.2314 45 46.3088 44.9718 46.368 44.916L53.9453 37.702C54.0015 37.6479 54.0335 37.5749 54.0335 37.4983C54.0335 37.4218 54.0015 37.3488 53.9453 37.2947L46.3674 30.0841C46.2495 29.972 46.0579 29.972 45.9401 30.0841C45.8222 30.1963 45.8222 30.3787 45.9401 30.4909L53.304 37.4983L45.9401 44.5086C45.8222 44.6208 45.8222 44.8032 45.9401 44.9154C45.9993 44.9718 46.0767 45 46.154 45Z" fill="white" stroke="white" stroke-width="0.681818"/>
</svg>
