<svg width="64" height="64" viewBox="0 0 64 64" fill="none" xmlns="http://www.w3.org/2000/svg">
<path d="M49.1053 16.5567C48.8785 16.4522 48.6993 16.2665 48.603 16.0362C47.23 12.766 44.9219 9.9741 41.9682 8.01074C39.0145 6.04738 35.5467 5 32 5C28.4533 5 24.9856 6.04738 22.0318 8.01074C19.0781 9.9741 16.77 12.766 15.397 16.0362C15.3006 16.2665 15.1213 16.4523 14.8945 16.5567C11.9533 17.9181 9.46069 20.0892 7.70842 22.8157C5.95614 25.5422 5.01669 28.7114 5 31.9524C4.975 41.1174 12.4045 48.7624 21.5615 48.9944C24.8927 49.0838 28.1762 48.1876 31 46.4182V57.9999C31 58.2651 31.1054 58.5195 31.2929 58.707C31.4804 58.8946 31.7348 58.9999 32 58.9999C32.2652 58.9999 32.5196 58.8946 32.7071 58.707C32.8946 58.5195 33 58.2651 33 57.9999V46.4187C35.6965 48.1105 38.8165 49.0053 41.9997 48.9999C42.1457 48.9999 42.2928 48.9982 42.4393 48.9947C51.5963 48.7627 59.0255 41.1172 59 31.9519C58.9831 28.711 58.0436 25.5419 56.2913 22.8155C54.539 20.0891 52.0464 17.9181 49.1053 16.5567ZM42.3887 46.9949C39.2926 47.0833 36.2462 46.2024 33.675 44.4754C33.4649 44.3354 33.2382 44.2222 33 44.1384V32.6182L44.4475 26.8944C44.6847 26.7757 44.8651 26.5677 44.9489 26.316C45.0328 26.0643 45.0132 25.7897 44.8945 25.5524C44.7758 25.3152 44.5678 25.1348 44.3161 25.051C44.0644 24.9672 43.7897 24.9867 43.5525 25.1054L33 30.3817V21.9999C33 21.7347 32.8946 21.4804 32.7071 21.2928C32.5196 21.1053 32.2652 20.9999 32 20.9999C31.7348 20.9999 31.4804 21.1053 31.2929 21.2928C31.1054 21.4804 31 21.7347 31 21.9999V36.3817L20.4475 31.1054C20.2103 30.9867 19.9356 30.9672 19.6839 31.051C19.4323 31.1348 19.2242 31.3152 19.1055 31.5524C18.9868 31.7897 18.9672 32.0643 19.0511 32.316C19.1349 32.5677 19.3153 32.7757 19.5525 32.8944L31 38.6182V44.1382C30.7618 44.222 30.535 44.3354 30.325 44.4757C27.7545 46.2038 24.7078 47.0846 21.6118 46.9949C13.5328 46.7909 6.978 40.0449 7 31.9579C7.01482 29.098 7.8439 26.3015 9.39021 23.8957C10.9365 21.4898 13.1361 19.5742 15.7315 18.3729C16.4127 18.0597 16.9514 17.502 17.241 16.8104C18.4615 13.9034 20.5133 11.4216 23.1389 9.67626C25.7646 7.93094 28.8472 6.99987 32 6.99987C35.1528 6.99987 38.2354 7.93094 40.8611 9.67626C43.4867 11.4216 45.5385 13.9034 46.759 16.8104C47.0486 17.502 47.5873 18.0597 48.2685 18.3729C50.8638 19.5741 53.0634 21.4897 54.6097 23.8955C56.156 26.3012 56.9851 29.0976 57 31.9574C57.0225 40.0449 50.4678 46.7909 42.3887 46.9952V46.9949Z" fill="#5B6460"/>
</svg>
